<svg xmlns="http://www.w3.org/2000/svg" viewBox="0 0 128 128" role="img" aria-labelledby="title desc">
  <title>Tab Audio Recorder</title>
  <desc>A clean white dolphin silhouette on a bright blue field.</desc>
  <rect width="128" height="128" rx="30" fill="#5a9bea"/>
  <path fill="#ffffff" d="M22 63c5.1-17.8 22.3-28.5 46-28.5 12.7 0 23.9 2.4 33.1 7.2 4.4-3.7 9.7-4.9 16-3.5-7.4 3.1-9.9 8.4-7.5 15.9 11.4 14 16.5 34.8 13.7 60.8C113.5 83.8 92 64.1 55.7 48.5c-9.7 2.2-18 6.2-24.8 12l-6.3 10.7-3.4-2.2 4.1-6.4Zm38.7 8.3c-8.8-4.4-16.1-10.7-21.3-18.8 9.2 1.7 18.1 5.4 26.8 11.3-4.5 1-6.4 3.5-5.5 7.5Z"/>
</svg>
